<svg width="26" height="24" viewBox="0 0 26 24" fill="none" xmlns="http://www.w3.org/2000/svg">
<path fill-rule="evenodd" clip-rule="evenodd" d="M23.5 4H2.5V18H23.5V4ZM2.5 2.5C1.67157 2.5 1 3.17157 1 4V18C1 18.8284 1.67157 19.5 2.5 19.5H23.5C24.3284 19.5 25 18.8284 25 18V4C25 3.17157 24.3284 2.5 23.5 2.5H2.5ZM6.75 21C6.33579 21 6 21.3358 6 21.75C6 22.1642 6.33579 22.5 6.75 22.5H19.25C19.6642 22.5 20 22.1642 20 21.75C20 21.3358 19.6642 21 19.25 21H6.75ZM16.375 11.6495L17.5 11L16.375 10.3505L11.125 7.31939L10 6.66987V7.96891V14.0311V15.3301L11.125 14.6806L16.375 11.6495ZM14.5 11L11.5 12.7321V9.26795L14.5 11Z" fill="#46494C"/>
</svg>
